<svg width="12" height="12" viewBox="0 0 12 12" fill="none" xmlns="http://www.w3.org/2000/svg">
<path d="M0.266211 0.275313C0.621159 -0.0796357 1.19454 -0.0796357 1.54948 0.275313L5.99999 4.71672L10.4505 0.266212C10.8055 -0.0887372 11.3788 -0.0887372 11.7338 0.266212C12.0887 0.62116 12.0887 1.19454 11.7338 1.54949L7.28326 6L11.7338 10.4505C12.0887 10.8055 12.0887 11.3788 11.7338 11.7338C11.3788 12.0887 10.8055 12.0887 10.4505 11.7338L5.99999 7.28328L1.54948 11.7338C1.19454 12.0887 0.621159 12.0887 0.266211 11.7338C-0.0887375 11.3788 -0.0887375 10.8055 0.266211 10.4505L4.71671 6L0.266211 1.54949C-0.0796356 1.20364 -0.0796356 0.621161 0.266211 0.275313Z" fill="#CCD0D1"/>
</svg>
